<mxfile host="65bd71144e">
    <diagram name="Page-1" id="aaaa8250-4180-3840-79b5-4cada1eebb92">
        <mxGraphModel dx="1351" dy="270" grid="0" gridSize="10" guides="1" tooltips="1" connect="1" arrows="1" fold="1" page="1" pageScale="1" pageWidth="850" pageHeight="1100" background="#E6E6E6" math="0" shadow="0">
            <root>
                <mxCell id="0"/>
                <mxCell id="1" parent="0"/>
                <mxCell id="dqWqQSTBU6OKt4y5Ka5Y-14" value="AWS Cloud" style="sketch=0;outlineConnect=0;gradientColor=none;html=1;whiteSpace=wrap;fontSize=12;fontStyle=0;shape=mxgraph.aws4.group;grIcon=mxgraph.aws4.group_aws_cloud;strokeColor=#AAB7B8;fillColor=none;verticalAlign=top;align=left;spacingLeft=30;fontColor=#AAB7B8;dashed=0;" parent="1" vertex="1">
                    <mxGeometry x="-800" y="110" width="870" height="770" as="geometry"/>
                </mxCell>
                <mxCell id="dqWqQSTBU6OKt4y5Ka5Y-11" value="" style="rounded=1;arcSize=10;dashed=0;fillColor=none;gradientColor=none;strokeWidth=2;" parent="1" vertex="1">
                    <mxGeometry x="-770" y="160" width="810" height="570" as="geometry"/>
                </mxCell>
                <mxCell id="dqWqQSTBU6OKt4y5Ka5Y-15" value="Region" style="sketch=0;outlineConnect=0;gradientColor=none;html=1;whiteSpace=wrap;fontSize=12;fontStyle=0;shape=mxgraph.aws4.group;grIcon=mxgraph.aws4.group_region;strokeColor=#879196;fillColor=none;verticalAlign=top;align=left;spacingLeft=30;fontColor=#879196;dashed=1;" parent="1" vertex="1">
                    <mxGeometry x="-720" y="200" width="630" height="500" as="geometry"/>
                </mxCell>
                <mxCell id="dqWqQSTBU6OKt4y5Ka5Y-8" value="Availability zone" style="sketch=0;outlineConnect=0;gradientColor=none;html=1;whiteSpace=wrap;fontSize=12;fontStyle=0;shape=mxgraph.aws4.group;grIcon=mxgraph.aws4.group_availability_zone;strokeColor=#545B64;fillColor=none;verticalAlign=top;align=left;spacingLeft=30;fontColor=#545B64;dashed=1;" parent="1" vertex="1">
                    <mxGeometry x="-660" y="230" width="540" height="440" as="geometry"/>
                </mxCell>
                <mxCell id="dqWqQSTBU6OKt4y5Ka5Y-9" value="Public subnet" style="points=[[0,0],[0.25,0],[0.5,0],[0.75,0],[1,0],[1,0.25],[1,0.5],[1,0.75],[1,1],[0.75,1],[0.5,1],[0.25,1],[0,1],[0,0.75],[0,0.5],[0,0.25]];outlineConnect=0;gradientColor=none;html=1;whiteSpace=wrap;fontSize=12;fontStyle=0;container=1;pointerEvents=0;collapsible=0;recursiveResize=0;shape=mxgraph.aws4.group;grIcon=mxgraph.aws4.group_security_group;grStroke=0;strokeColor=#248814;fillColor=#E9F3E6;verticalAlign=top;align=left;spacingLeft=30;fontColor=#248814;dashed=0;" parent="1" vertex="1">
                    <mxGeometry x="-600" y="300" width="435" height="330" as="geometry"/>
                </mxCell>
                <mxCell id="dqWqQSTBU6OKt4y5Ka5Y-19" value="" style="rounded=1;arcSize=10;dashed=1;strokeColor=#ff0000;fillColor=none;gradientColor=none;dashPattern=8 4;strokeWidth=2;" parent="dqWqQSTBU6OKt4y5Ka5Y-9" vertex="1">
                    <mxGeometry x="90" y="90" width="199.5" height="199.5" as="geometry"/>
                </mxCell>
                <mxCell id="dqWqQSTBU6OKt4y5Ka5Y-22" value="Security Group" style="text;html=1;strokeColor=none;fillColor=none;align=center;verticalAlign=middle;whiteSpace=wrap;rounded=0;" parent="dqWqQSTBU6OKt4y5Ka5Y-9" vertex="1">
                    <mxGeometry x="90" y="90" width="100" height="30" as="geometry"/>
                </mxCell>
                <mxCell id="dqWqQSTBU6OKt4y5Ka5Y-23" value="" style="outlineConnect=0;dashed=0;verticalLabelPosition=bottom;verticalAlign=top;align=center;html=1;shape=mxgraph.aws3.instance;fillColor=#F58534;gradientColor=none;" parent="dqWqQSTBU6OKt4y5Ka5Y-9" vertex="1">
                    <mxGeometry x="110" y="120" width="160" height="150" as="geometry"/>
                </mxCell>
                <mxCell id="dqWqQSTBU6OKt4y5Ka5Y-24" value="" style="shape=image;html=1;verticalAlign=top;verticalLabelPosition=bottom;labelBackgroundColor=#ffffff;imageAspect=0;aspect=fixed;image=https://cdn0.iconfinder.com/data/icons/font-awesome-brands-vol-2/512/ubuntu-128.png" parent="dqWqQSTBU6OKt4y5Ka5Y-9" vertex="1">
                    <mxGeometry x="230" y="130" width="34" height="34" as="geometry"/>
                </mxCell>
                <mxCell id="dqWqQSTBU6OKt4y5Ka5Y-25" value="Ubuntu Instance" style="text;html=1;strokeColor=none;fillColor=none;align=center;verticalAlign=middle;whiteSpace=wrap;rounded=0;" parent="dqWqQSTBU6OKt4y5Ka5Y-9" vertex="1">
                    <mxGeometry x="129.75" y="230" width="120" height="30" as="geometry"/>
                </mxCell>
                <mxCell id="dqWqQSTBU6OKt4y5Ka5Y-32" value="" style="sketch=0;aspect=fixed;html=1;points=[];align=center;image;fontSize=12;image=img/lib/mscae/Kubernetes.svg;" parent="dqWqQSTBU6OKt4y5Ka5Y-9" vertex="1">
                    <mxGeometry x="150" y="150" width="50" height="48" as="geometry"/>
                </mxCell>
                <mxCell id="dqWqQSTBU6OKt4y5Ka5Y-34" value="Minikube" style="text;html=1;strokeColor=none;fillColor=none;align=center;verticalAlign=middle;whiteSpace=wrap;rounded=0;" parent="dqWqQSTBU6OKt4y5Ka5Y-9" vertex="1">
                    <mxGeometry x="145" y="190" width="60" height="30" as="geometry"/>
                </mxCell>
                <mxCell id="dqWqQSTBU6OKt4y5Ka5Y-10" value="" style="outlineConnect=0;dashed=0;verticalLabelPosition=bottom;verticalAlign=top;align=center;html=1;shape=mxgraph.aws3.route_table;fillColor=#F58536;gradientColor=none;" parent="1" vertex="1">
                    <mxGeometry x="-210" y="323" width="75" height="69" as="geometry"/>
                </mxCell>
                <mxCell id="dqWqQSTBU6OKt4y5Ka5Y-12" value="" style="dashed=0;html=1;shape=mxgraph.aws3.virtual_private_cloud;fillColor=#F58536;gradientColor=none;dashed=0;" parent="1" vertex="1">
                    <mxGeometry x="-750" y="140" width="52" height="36" as="geometry"/>
                </mxCell>
                <mxCell id="dqWqQSTBU6OKt4y5Ka5Y-13" value="" style="outlineConnect=0;dashed=0;verticalLabelPosition=bottom;verticalAlign=top;align=center;html=1;shape=mxgraph.aws3.cloud_2;fillColor=#F58534;gradientColor=none;" parent="1" vertex="1">
                    <mxGeometry x="-790" y="30" width="75" height="75" as="geometry"/>
                </mxCell>
                <mxCell id="dqWqQSTBU6OKt4y5Ka5Y-16" value="" style="outlineConnect=0;dashed=0;verticalLabelPosition=bottom;verticalAlign=top;align=center;html=1;shape=mxgraph.aws3.internet_gateway;fillColor=#F58534;gradientColor=none;" parent="1" vertex="1">
                    <mxGeometry x="1" y="320" width="69" height="72" as="geometry"/>
                </mxCell>
                <mxCell id="dqWqQSTBU6OKt4y5Ka5Y-18" value="" style="endArrow=classic;startArrow=classic;html=1;rounded=0;entryX=0;entryY=0.5;entryDx=0;entryDy=0;entryPerimeter=0;exitX=1;exitY=0.5;exitDx=0;exitDy=0;exitPerimeter=0;" parent="1" source="dqWqQSTBU6OKt4y5Ka5Y-10" target="dqWqQSTBU6OKt4y5Ka5Y-16" edge="1">
                    <mxGeometry width="50" height="50" relative="1" as="geometry">
                        <mxPoint x="-280" y="296" as="sourcePoint"/>
                        <mxPoint x="-230" y="246" as="targetPoint"/>
                        <Array as="points"/>
                    </mxGeometry>
                </mxCell>
                <mxCell id="dqWqQSTBU6OKt4y5Ka5Y-28" style="endArrow=classic;startArrow=classic;edgeStyle=orthogonalEdgeStyle;rounded=0;orthogonalLoop=1;jettySize=auto;html=1;" parent="1" source="dqWqQSTBU6OKt4y5Ka5Y-21" target="dqWqQSTBU6OKt4y5Ka5Y-27" edge="1">
                    <mxGeometry relative="1" as="geometry"/>
                </mxCell>
                <mxCell id="dqWqQSTBU6OKt4y5Ka5Y-21" value="" style="shadow=0;dashed=0;html=1;strokeColor=none;fillColor=#4495D1;labelPosition=center;verticalLabelPosition=bottom;verticalAlign=top;align=center;outlineConnect=0;shape=mxgraph.veeam.2d.private_key;" parent="1" vertex="1">
                    <mxGeometry x="-70" y="470" width="55.6" height="50.8" as="geometry"/>
                </mxCell>
                <mxCell id="dqWqQSTBU6OKt4y5Ka5Y-26" style="endArrow=classic;startArrow=classic;edgeStyle=orthogonalEdgeStyle;rounded=0;orthogonalLoop=1;jettySize=auto;html=1;exitX=1;exitY=0.5;exitDx=0;exitDy=0;exitPerimeter=0;" parent="1" source="dqWqQSTBU6OKt4y5Ka5Y-23" target="dqWqQSTBU6OKt4y5Ka5Y-21" edge="1">
                    <mxGeometry relative="1" as="geometry"/>
                </mxCell>
                <mxCell id="dqWqQSTBU6OKt4y5Ka5Y-27" value="" style="sketch=0;pointerEvents=1;shadow=0;dashed=0;html=1;strokeColor=none;fillColor=#505050;labelPosition=center;verticalLabelPosition=bottom;verticalAlign=top;outlineConnect=0;align=center;shape=mxgraph.office.devices.workstation_pc;" parent="1" vertex="1">
                    <mxGeometry x="160" y="571" width="53" height="59" as="geometry"/>
                </mxCell>
                <mxCell id="dqWqQSTBU6OKt4y5Ka5Y-29" value="AWS Key Pair" style="text;html=1;strokeColor=none;fillColor=none;align=center;verticalAlign=middle;whiteSpace=wrap;rounded=0;" parent="1" vertex="1">
                    <mxGeometry x="-74.4" y="530" width="60" height="30" as="geometry"/>
                </mxCell>
                <mxCell id="dqWqQSTBU6OKt4y5Ka5Y-30" value="Route Table" style="text;html=1;strokeColor=none;fillColor=none;align=center;verticalAlign=middle;whiteSpace=wrap;rounded=0;" parent="1" vertex="1">
                    <mxGeometry x="-217.5" y="392" width="90" height="30" as="geometry"/>
                </mxCell>
                <mxCell id="dqWqQSTBU6OKt4y5Ka5Y-31" value="Internet Gateway" style="text;html=1;strokeColor=none;fillColor=none;align=center;verticalAlign=middle;whiteSpace=wrap;rounded=0;" parent="1" vertex="1">
                    <mxGeometry x="80" y="341" width="60" height="30" as="geometry"/>
                </mxCell>
                <mxCell id="dqWqQSTBU6OKt4y5Ka5Y-33" value="Text" style="text;html=1;strokeColor=none;fillColor=none;align=center;verticalAlign=middle;whiteSpace=wrap;rounded=0;" parent="1" vertex="1">
                    <mxGeometry x="-310" y="480" width="60" height="30" as="geometry"/>
                </mxCell>
            </root>
        </mxGraphModel>
    </diagram>
</mxfile>